<svg xmlns="http://www.w3.org/2000/svg" xmlns:xlink="http://www.w3.org/1999/xlink" width="206" zoomAndPan="magnify" viewBox="0 0 154.5 32.249999" height="43" preserveAspectRatio="xMidYMid meet" version="1.2"><defs><clipPath id="ac6a5b783f"><path d="M 1.511719 0 L 152.5 0 L 152.5 31.515625 L 1.511719 31.515625 Z M 1.511719 0 "/></clipPath><clipPath id="0757895c50"><path d="M 1.511719 0 L 31 0 L 31 30 L 1.511719 30 Z M 1.511719 0 "/></clipPath><clipPath id="f4a341cdc8"><path d="M 38.269531 0 L 152.5 0 L 152.5 31.515625 L 38.269531 31.515625 Z M 38.269531 0 "/></clipPath></defs><g id="d45dc59dee"><g clip-rule="nonzero" clip-path="url(#ac6a5b783f)"><path style=" stroke:none;fill-rule:nonzero;fill:#ffffff;fill-opacity:1;" d="M 1.511719 0 L 152.5 0 L 152.5 31.515625 L 1.511719 31.515625 Z M 1.511719 0 "/><path style=" stroke:none;fill-rule:nonzero;fill:#ffffff;fill-opacity:1;" d="M 1.511719 0 L 152.5 0 L 152.5 31.515625 L 1.511719 31.515625 Z M 1.511719 0 "/></g><path style=" stroke:none;fill-rule:nonzero;fill:#000000;fill-opacity:1;" d="M 47.363281 25.195312 C 46.085938 25.195312 44.886719 24.960938 43.777344 24.496094 C 42.679688 24.03125 41.714844 23.390625 40.882812 22.578125 C 40.054688 21.746094 39.40625 20.785156 38.941406 19.6875 C 38.492188 18.574219 38.269531 17.386719 38.269531 16.125 C 38.269531 14.859375 38.492188 13.691406 38.941406 12.609375 C 39.40625 11.511719 40.046875 10.558594 40.859375 9.742188 C 41.691406 8.914062 42.652344 8.273438 43.75 7.824219 C 44.847656 7.359375 46.035156 7.128906 47.3125 7.128906 C 48.59375 7.128906 49.78125 7.359375 50.878906 7.824219 C 51.972656 8.273438 52.9375 8.914062 53.769531 9.742188 C 54.597656 10.558594 55.238281 11.511719 55.6875 12.609375 C 56.152344 13.707031 56.386719 14.886719 56.386719 16.148438 C 56.386719 17.410156 56.152344 18.589844 55.6875 19.6875 C 55.238281 20.785156 54.597656 21.746094 53.769531 22.578125 C 52.953125 23.390625 52 24.03125 50.902344 24.496094 C 49.804688 24.960938 48.625 25.195312 47.363281 25.195312 Z M 55.265625 26.214844 L 47.238281 18.191406 L 49.28125 16.125 L 57.332031 24.171875 Z M 47.3125 22.03125 C 48.425781 22.03125 49.398438 21.78125 50.230469 21.28125 C 51.078125 20.785156 51.734375 20.09375 52.199219 19.214844 C 52.679688 18.332031 52.921875 17.304688 52.921875 16.125 C 52.921875 15.257812 52.78125 14.46875 52.496094 13.757812 C 52.230469 13.042969 51.851562 12.425781 51.351562 11.910156 C 50.851562 11.378906 50.261719 10.972656 49.582031 10.691406 C 48.902344 10.410156 48.144531 10.265625 47.3125 10.265625 C 46.21875 10.265625 45.246094 10.515625 44.398438 11.015625 C 43.566406 11.496094 42.910156 12.179688 42.429688 13.058594 C 41.964844 13.9375 41.730469 14.960938 41.730469 16.125 C 41.730469 17.003906 41.863281 17.808594 42.128906 18.539062 C 42.414062 19.273438 42.796875 19.894531 43.277344 20.410156 C 43.777344 20.925781 44.367188 21.324219 45.046875 21.605469 C 45.746094 21.886719 46.5 22.03125 47.3125 22.03125 Z M 64.367188 25.167969 C 63.304688 25.167969 62.355469 24.945312 61.527344 24.496094 C 60.710938 24.046875 60.074219 23.425781 59.609375 22.628906 C 59.140625 21.832031 58.910156 20.910156 58.910156 19.863281 L 58.910156 12.882812 L 62.199219 12.882812 L 62.199219 19.785156 C 62.199219 20.285156 62.28125 20.71875 62.449219 21.082031 C 62.613281 21.429688 62.863281 21.699219 63.195312 21.878906 C 63.527344 22.0625 63.917969 22.152344 64.367188 22.152344 C 65.046875 22.152344 65.582031 21.945312 65.960938 21.53125 C 66.34375 21.117188 66.535156 20.535156 66.535156 19.785156 L 66.535156 12.882812 L 69.800781 12.882812 L 69.800781 19.863281 C 69.800781 20.925781 69.566406 21.855469 69.101562 22.652344 C 68.652344 23.449219 68.015625 24.074219 67.183594 24.523438 C 66.371094 24.953125 65.429688 25.167969 64.367188 25.167969 Z M 72.398438 24.921875 L 72.398438 12.882812 L 75.6875 12.882812 L 75.6875 24.921875 Z M 74.042969 10.941406 C 73.511719 10.941406 73.074219 10.765625 72.722656 10.417969 C 72.375 10.050781 72.199219 9.601562 72.199219 9.070312 C 72.199219 8.554688 72.375 8.117188 72.722656 7.75 C 73.074219 7.382812 73.511719 7.203125 74.042969 7.203125 C 74.59375 7.203125 75.035156 7.382812 75.367188 7.75 C 75.714844 8.117188 75.886719 8.554688 75.886719 9.070312 C 75.886719 9.601562 75.714844 10.050781 75.367188 10.417969 C 75.035156 10.765625 74.59375 10.941406 74.042969 10.941406 Z M 84.261719 25.167969 C 83.035156 25.167969 81.929688 24.894531 80.949219 24.347656 C 79.96875 23.800781 79.195312 23.050781 78.632812 22.105469 C 78.066406 21.15625 77.785156 20.09375 77.785156 18.914062 C 77.785156 17.71875 78.066406 16.648438 78.632812 15.699219 C 79.195312 14.753906 79.96875 14.003906 80.949219 13.457031 C 81.945312 12.890625 83.050781 12.609375 84.261719 12.609375 C 85.210938 12.609375 86.082031 12.785156 86.878906 13.132812 C 87.675781 13.480469 88.367188 13.980469 88.949219 14.628906 L 86.855469 16.746094 C 86.539062 16.398438 86.15625 16.132812 85.707031 15.949219 C 85.277344 15.765625 84.792969 15.675781 84.261719 15.675781 C 83.664062 15.675781 83.125 15.816406 82.644531 16.097656 C 82.179688 16.363281 81.804688 16.738281 81.523438 17.21875 C 81.257812 17.683594 81.125 18.242188 81.125 18.890625 C 81.125 19.519531 81.257812 20.085938 81.523438 20.585938 C 81.804688 21.066406 82.179688 21.449219 82.644531 21.730469 C 83.125 21.996094 83.664062 22.128906 84.261719 22.128906 C 84.8125 22.128906 85.300781 22.039062 85.734375 21.855469 C 86.183594 21.65625 86.5625 21.375 86.878906 21.007812 L 89 23.125 C 88.382812 23.789062 87.675781 24.296875 86.878906 24.644531 C 86.082031 24.996094 85.210938 25.167969 84.261719 25.167969 Z M 98.523438 24.921875 L 93.863281 18.714844 L 98.496094 12.882812 L 102.261719 12.882812 L 96.828125 19.460938 L 96.953125 17.867188 L 102.507812 24.921875 Z M 90.847656 24.921875 L 90.847656 6.902344 L 94.113281 6.902344 L 94.113281 24.921875 Z M 110.691406 25.167969 C 109.828125 25.167969 109.046875 24.988281 108.347656 24.621094 C 107.652344 24.257812 107.09375 23.757812 106.679688 23.125 C 106.265625 22.496094 106.039062 21.789062 106.007812 21.007812 L 106.007812 16.722656 C 106.039062 15.941406 106.265625 15.242188 106.679688 14.628906 C 107.109375 13.996094 107.675781 13.507812 108.375 13.15625 C 109.070312 12.808594 109.84375 12.632812 110.691406 12.632812 C 111.804688 12.632812 112.800781 12.910156 113.683594 13.457031 C 114.5625 14.003906 115.253906 14.753906 115.75 15.699219 C 116.265625 16.648438 116.523438 17.71875 116.523438 18.914062 C 116.523438 20.09375 116.265625 21.15625 115.75 22.105469 C 115.253906 23.050781 114.5625 23.800781 113.683594 24.347656 C 112.800781 24.894531 111.804688 25.167969 110.691406 25.167969 Z M 104.011719 24.921875 L 104.011719 6.902344 L 107.277344 6.902344 L 107.277344 15.847656 L 106.730469 18.738281 L 107.253906 21.679688 L 107.253906 24.921875 Z M 110.144531 22.152344 C 110.742188 22.152344 111.265625 22.019531 111.714844 21.753906 C 112.179688 21.472656 112.535156 21.089844 112.785156 20.609375 C 113.050781 20.109375 113.183594 19.539062 113.183594 18.890625 C 113.183594 18.257812 113.050781 17.703125 112.785156 17.21875 C 112.535156 16.722656 112.179688 16.339844 111.714844 16.074219 C 111.246094 15.792969 110.714844 15.648438 110.117188 15.648438 C 109.519531 15.648438 108.988281 15.792969 108.523438 16.074219 C 108.074219 16.339844 107.71875 16.722656 107.453125 17.21875 C 107.203125 17.703125 107.078125 18.257812 107.078125 18.890625 C 107.078125 19.539062 107.203125 20.109375 107.453125 20.609375 C 107.71875 21.089844 108.082031 21.472656 108.546875 21.753906 C 109.015625 22.019531 109.546875 22.152344 110.144531 22.152344 Z M 118.664062 24.921875 L 118.664062 6.902344 L 121.925781 6.902344 L 121.925781 24.921875 Z M 130.476562 25.167969 C 129.265625 25.167969 128.167969 24.894531 127.1875 24.347656 C 126.222656 23.78125 125.453125 23.027344 124.871094 22.078125 C 124.304688 21.117188 124.023438 20.042969 124.023438 18.863281 C 124.023438 17.683594 124.304688 16.628906 124.871094 15.699219 C 125.433594 14.753906 126.207031 14.003906 127.1875 13.457031 C 128.167969 12.890625 129.257812 12.609375 130.453125 12.609375 C 131.683594 12.609375 132.777344 12.890625 133.742188 13.457031 C 134.722656 14.003906 135.496094 14.753906 136.058594 15.699219 C 136.625 16.628906 136.90625 17.683594 136.90625 18.863281 C 136.90625 20.042969 136.625 21.117188 136.058594 22.078125 C 135.496094 23.027344 134.722656 23.78125 133.742188 24.347656 C 132.777344 24.894531 131.691406 25.167969 130.476562 25.167969 Z M 130.453125 22.128906 C 131.066406 22.128906 131.605469 21.996094 132.074219 21.730469 C 132.554688 21.449219 132.917969 21.066406 133.167969 20.585938 C 133.433594 20.085938 133.566406 19.519531 133.566406 18.890625 C 133.566406 18.257812 133.433594 17.703125 133.167969 17.21875 C 132.902344 16.738281 132.539062 16.363281 132.074219 16.097656 C 131.605469 15.816406 131.066406 15.675781 130.453125 15.675781 C 129.855469 15.675781 129.324219 15.816406 128.859375 16.097656 C 128.390625 16.363281 128.027344 16.738281 127.761719 17.21875 C 127.496094 17.703125 127.363281 18.257812 127.363281 18.890625 C 127.363281 19.519531 127.496094 20.085938 127.761719 20.585938 C 128.027344 21.066406 128.390625 21.449219 128.859375 21.730469 C 129.324219 21.996094 129.855469 22.128906 130.453125 22.128906 Z M 144.042969 30.253906 C 142.761719 30.253906 141.632812 30.019531 140.652344 29.554688 C 139.671875 29.105469 138.890625 28.46875 138.3125 27.636719 L 140.378906 25.570312 C 140.84375 26.117188 141.359375 26.53125 141.925781 26.8125 C 142.503906 27.113281 143.203125 27.261719 144.015625 27.261719 C 145.03125 27.261719 145.828125 27.003906 146.410156 26.492188 C 147.007812 25.976562 147.308594 25.261719 147.308594 24.347656 L 147.308594 21.332031 L 147.855469 18.691406 L 147.332031 16.046875 L 147.332031 12.882812 L 150.570312 12.882812 L 150.570312 24.296875 C 150.570312 25.492188 150.289062 26.53125 149.722656 27.414062 C 149.175781 28.308594 148.410156 29.007812 147.429688 29.503906 C 146.453125 30.003906 145.320312 30.253906 144.042969 30.253906 Z M 143.894531 24.597656 C 142.8125 24.597656 141.839844 24.339844 140.976562 23.824219 C 140.113281 23.292969 139.433594 22.570312 138.933594 21.65625 C 138.453125 20.742188 138.210938 19.71875 138.210938 18.589844 C 138.210938 17.460938 138.453125 16.449219 138.933594 15.550781 C 139.433594 14.652344 140.113281 13.945312 140.976562 13.433594 C 141.839844 12.902344 142.8125 12.632812 143.894531 12.632812 C 144.789062 12.632812 145.578125 12.808594 146.261719 13.15625 C 146.957031 13.507812 147.507812 13.988281 147.90625 14.601562 C 148.304688 15.203125 148.519531 15.90625 148.554688 16.722656 L 148.554688 20.507812 C 148.519531 21.308594 148.296875 22.019531 147.878906 22.652344 C 147.480469 23.265625 146.933594 23.75 146.234375 24.097656 C 145.554688 24.429688 144.773438 24.597656 143.894531 24.597656 Z M 144.539062 21.632812 C 145.140625 21.632812 145.652344 21.507812 146.085938 21.257812 C 146.535156 20.992188 146.882812 20.632812 147.132812 20.1875 C 147.382812 19.71875 147.507812 19.195312 147.507812 18.617188 C 147.507812 18.015625 147.382812 17.496094 147.132812 17.046875 C 146.882812 16.597656 146.535156 16.25 146.085938 16 C 145.652344 15.734375 145.140625 15.601562 144.539062 15.601562 C 143.941406 15.601562 143.417969 15.734375 142.972656 16 C 142.523438 16.25 142.171875 16.605469 141.925781 17.070312 C 141.675781 17.519531 141.550781 18.035156 141.550781 18.617188 C 141.550781 19.179688 141.675781 19.695312 141.925781 20.160156 C 142.171875 20.609375 142.523438 20.964844 142.972656 21.230469 C 143.417969 21.5 143.941406 21.632812 144.539062 21.632812 Z M 144.539062 21.632812 "/><g clip-rule="nonzero" clip-path="url(#0757895c50)"><path style=" stroke:none;fill-rule:nonzero;fill:#5044e5;fill-opacity:1;" d="M 16.171875 0.160156 C 24.265625 0.160156 30.828125 6.722656 30.828125 14.820312 L 30.828125 25.082031 C 30.828125 26.246094 30.367188 27.367188 29.542969 28.191406 C 28.714844 29.015625 27.597656 29.480469 26.429688 29.480469 L 16.902344 29.480469 L 16.902344 23.046875 C 16.902344 21.582031 16.992188 20.058594 17.761719 18.8125 C 18.3125 17.917969 19.050781 17.148438 19.921875 16.566406 C 20.796875 15.980469 21.785156 15.589844 22.824219 15.417969 L 23.101562 15.375 C 23.21875 15.335938 23.320312 15.261719 23.390625 15.160156 C 23.460938 15.0625 23.5 14.941406 23.5 14.820312 C 23.5 14.695312 23.460938 14.578125 23.390625 14.476562 C 23.320312 14.378906 23.21875 14.304688 23.101562 14.265625 L 22.824219 14.21875 C 21.308594 13.972656 19.90625 13.253906 18.820312 12.167969 C 17.734375 11.082031 17.019531 9.683594 16.769531 8.167969 L 16.726562 7.886719 C 16.683594 7.769531 16.609375 7.671875 16.511719 7.597656 C 16.410156 7.527344 16.292969 7.488281 16.171875 7.488281 C 16.046875 7.488281 15.929688 7.527344 15.828125 7.597656 C 15.730469 7.671875 15.65625 7.769531 15.613281 7.886719 L 15.570312 8.167969 C 15.402344 9.203125 15.011719 10.191406 14.425781 11.066406 C 13.839844 11.941406 13.074219 12.675781 12.179688 13.226562 C 10.929688 13.996094 9.410156 14.085938 7.941406 14.085938 L 1.527344 14.085938 C 1.910156 6.332031 8.320312 0.160156 16.171875 0.160156 Z M 16.171875 0.160156 "/><path style=" stroke:none;fill-rule:nonzero;fill:#5044e5;fill-opacity:1;" d="M 1.511719 15.550781 L 7.941406 15.550781 C 9.410156 15.550781 10.929688 15.640625 12.179688 16.410156 C 13.15625 17.011719 13.976562 17.835938 14.578125 18.8125 C 15.347656 20.058594 15.4375 21.582031 15.4375 23.046875 L 15.4375 29.480469 L 5.910156 29.480469 C 4.742188 29.480469 3.625 29.015625 2.800781 28.191406 C 1.976562 27.367188 1.511719 26.246094 1.511719 25.082031 Z M 30.828125 1.625 C 30.828125 2.015625 30.675781 2.386719 30.398438 2.664062 C 30.125 2.9375 29.753906 3.09375 29.363281 3.09375 C 28.976562 3.09375 28.601562 2.9375 28.328125 2.664062 C 28.050781 2.386719 27.898438 2.015625 27.898438 1.625 C 27.898438 1.238281 28.050781 0.863281 28.328125 0.589844 C 28.601562 0.316406 28.976562 0.160156 29.363281 0.160156 C 29.753906 0.160156 30.125 0.316406 30.398438 0.589844 C 30.675781 0.863281 30.828125 1.238281 30.828125 1.625 Z M 30.828125 1.625 "/></g><g clip-rule="nonzero" clip-path="url(#f4a341cdc8)"><path style=" stroke:none;fill-rule:nonzero;fill:#ffffff;fill-opacity:1;" d="M 38.269531 -13.449219 L 155.449219 -13.449219 L 155.449219 41.15625 L 38.269531 41.15625 Z M 38.269531 -13.449219 "/></g><g style="fill:#000000;fill-opacity:1;"><g transform="translate(37.536079, 22.69716)"><path style="stroke:none" d="M 15 -12.671875 C 15 -11.691406 14.65625 -10.867188 13.96875 -10.203125 C 13.28125 -9.535156 12.300781 -9.082031 11.03125 -8.84375 L 11.03125 -8.796875 C 12.46875 -8.578125 13.601562 -8.082031 14.4375 -7.3125 C 15.28125 -6.550781 15.703125 -5.617188 15.703125 -4.515625 C 15.703125 -3.578125 15.421875 -2.765625 14.859375 -2.078125 C 14.296875 -1.390625 13.546875 -0.867188 12.609375 -0.515625 C 11.671875 -0.171875 10.660156 0 9.578125 0 L 0.359375 0 L 0.359375 -0.4375 C 0.960938 -0.4375 1.421875 -0.476562 1.734375 -0.5625 C 2.046875 -0.65625 2.273438 -0.847656 2.421875 -1.140625 C 2.578125 -1.441406 2.65625 -1.910156 2.65625 -2.546875 L 2.65625 -14.21875 C 2.65625 -14.800781 2.585938 -15.242188 2.453125 -15.546875 C 2.316406 -15.847656 2.097656 -16.050781 1.796875 -16.15625 C 1.492188 -16.257812 1.066406 -16.320312 0.515625 -16.34375 L 0.515625 -16.78125 L 9.234375 -16.78125 C 10.109375 -16.78125 10.984375 -16.648438 11.859375 -16.390625 C 12.742188 -16.128906 13.488281 -15.691406 14.09375 -15.078125 C 14.695312 -14.472656 15 -13.671875 15 -12.671875 Z M 7.234375 -9.15625 C 8.566406 -9.15625 9.507812 -9.492188 10.0625 -10.171875 C 10.613281 -10.847656 10.890625 -11.632812 10.890625 -12.53125 C 10.890625 -13.363281 10.644531 -14.128906 10.15625 -14.828125 C 9.664062 -15.523438 8.851562 -15.875 7.71875 -15.875 L 6.5625 -15.875 L 6.5625 -9.15625 Z M 7.984375 -0.859375 C 8.992188 -0.859375 9.804688 -1.175781 10.421875 -1.8125 C 11.046875 -2.445312 11.359375 -3.289062 11.359375 -4.34375 C 11.359375 -5.445312 11.015625 -6.375 10.328125 -7.125 C 9.648438 -7.875 8.578125 -8.25 7.109375 -8.25 L 6.5625 -8.25 L 6.5625 -2.484375 C 6.5625 -1.835938 6.675781 -1.40625 6.90625 -1.1875 C 7.132812 -0.96875 7.492188 -0.859375 7.984375 -0.859375 Z M 7.984375 -0.859375 "/></g></g><g style="fill:#000000;fill-opacity:1;"><g transform="translate(53.829521, 22.69716)"><path style="stroke:none" d="M 5.125 -1.640625 C 5.125 -1.234375 5.222656 -0.929688 5.421875 -0.734375 C 5.617188 -0.535156 5.925781 -0.4375 6.34375 -0.4375 L 6.34375 0 L 0.296875 0 L 0.296875 -0.4375 C 0.796875 -0.4375 1.164062 -0.546875 1.40625 -0.765625 C 1.65625 -0.984375 1.78125 -1.320312 1.78125 -1.78125 L 1.78125 -14.84375 C 1.78125 -15.394531 1.671875 -15.773438 1.453125 -15.984375 C 1.234375 -16.203125 0.847656 -16.320312 0.296875 -16.34375 L 0.296875 -16.78125 L 5.125 -16.78125 Z M 5.125 -1.640625 "/></g></g><g style="fill:#000000;fill-opacity:1;"><g transform="translate(60.449497, 22.69716)"><path style="stroke:none" d="M 6.0625 -11.59375 C 7.050781 -11.59375 7.957031 -11.359375 8.78125 -10.890625 C 9.601562 -10.421875 10.257812 -9.734375 10.75 -8.828125 C 11.25 -7.921875 11.5 -6.84375 11.5 -5.59375 C 11.5 -4.257812 11.222656 -3.144531 10.671875 -2.25 C 10.117188 -1.363281 9.429688 -0.707031 8.609375 -0.28125 C 7.785156 0.132812 6.96875 0.34375 6.15625 0.34375 C 5.257812 0.34375 4.390625 0.113281 3.546875 -0.34375 C 2.710938 -0.8125 2.03125 -1.5 1.5 -2.40625 C 0.96875 -3.3125 0.703125 -4.398438 0.703125 -5.671875 C 0.703125 -6.804688 0.929688 -7.820312 1.390625 -8.71875 C 1.847656 -9.613281 2.484375 -10.316406 3.296875 -10.828125 C 4.109375 -11.335938 5.03125 -11.59375 6.0625 -11.59375 Z M 4.21875 -6.15625 C 4.21875 -4.6875 4.265625 -3.554688 4.359375 -2.765625 C 4.460938 -1.984375 4.648438 -1.410156 4.921875 -1.046875 C 5.191406 -0.691406 5.585938 -0.515625 6.109375 -0.515625 C 6.578125 -0.515625 6.945312 -0.660156 7.21875 -0.953125 C 7.5 -1.242188 7.695312 -1.71875 7.8125 -2.375 C 7.925781 -3.039062 7.984375 -3.941406 7.984375 -5.078125 C 7.984375 -6.546875 7.941406 -7.664062 7.859375 -8.4375 C 7.773438 -9.207031 7.59375 -9.785156 7.3125 -10.171875 C 7.039062 -10.554688 6.625 -10.75 6.0625 -10.75 C 5.34375 -10.75 4.851562 -10.359375 4.59375 -9.578125 C 4.34375 -8.804688 4.21875 -7.664062 4.21875 -6.15625 Z M 4.21875 -6.15625 "/></g></g><g style="fill:#000000;fill-opacity:1;"><g transform="translate(72.663474, 22.69716)"><path style="stroke:none" d="M 5.6875 -11.59375 C 6.125 -11.59375 6.507812 -11.554688 6.84375 -11.484375 C 7.175781 -11.410156 7.523438 -11.300781 7.890625 -11.15625 L 11.671875 -11.15625 L 11.671875 -9.859375 L 9.5 -9.859375 C 9.851562 -9.554688 10.128906 -9.203125 10.328125 -8.796875 C 10.535156 -8.398438 10.640625 -7.925781 10.640625 -7.375 C 10.640625 -6.65625 10.421875 -5.992188 9.984375 -5.390625 C 9.546875 -4.796875 8.960938 -4.328125 8.234375 -3.984375 C 7.515625 -3.640625 6.738281 -3.46875 5.90625 -3.46875 C 5.695312 -3.46875 5.484375 -3.476562 5.265625 -3.5 C 5.054688 -3.53125 4.890625 -3.546875 4.765625 -3.546875 C 4.390625 -3.546875 4.066406 -3.425781 3.796875 -3.1875 C 3.523438 -2.945312 3.390625 -2.675781 3.390625 -2.375 C 3.390625 -2 3.53125 -1.738281 3.8125 -1.59375 C 4.101562 -1.457031 4.671875 -1.390625 5.515625 -1.390625 C 5.828125 -1.390625 6.175781 -1.40625 6.5625 -1.4375 L 7.296875 -1.46875 C 8.648438 -1.46875 9.71875 -1.226562 10.5 -0.75 C 11.28125 -0.28125 11.671875 0.476562 11.671875 1.53125 C 11.671875 2.5625 11.21875 3.425781 10.3125 4.125 C 9.414062 4.820312 7.976562 5.171875 6 5.171875 C 4.34375 5.171875 3.050781 4.984375 2.125 4.609375 C 1.207031 4.234375 0.75 3.679688 0.75 2.953125 C 0.75 2.523438 0.894531 2.179688 1.1875 1.921875 C 1.488281 1.660156 1.972656 1.4375 2.640625 1.25 C 2.148438 0.988281 1.78125 0.6875 1.53125 0.34375 C 1.289062 0 1.171875 -0.40625 1.171875 -0.875 C 1.171875 -1.507812 1.367188 -2.050781 1.765625 -2.5 C 2.171875 -2.945312 2.851562 -3.390625 3.8125 -3.828125 C 2.894531 -4.160156 2.164062 -4.675781 1.625 -5.375 C 1.09375 -6.070312 0.828125 -6.835938 0.828125 -7.671875 C 0.828125 -8.390625 1.035156 -9.046875 1.453125 -9.640625 C 1.878906 -10.242188 2.460938 -10.71875 3.203125 -11.0625 C 3.953125 -11.414062 4.78125 -11.59375 5.6875 -11.59375 Z M 4.203125 -7.34375 C 4.203125 -5.257812 4.738281 -4.21875 5.8125 -4.21875 C 6.363281 -4.21875 6.773438 -4.488281 7.046875 -5.03125 C 7.316406 -5.570312 7.453125 -6.378906 7.453125 -7.453125 C 7.453125 -8.703125 7.304688 -9.578125 7.015625 -10.078125 C 6.734375 -10.585938 6.332031 -10.84375 5.8125 -10.84375 C 4.738281 -10.84375 4.203125 -9.675781 4.203125 -7.34375 Z M 2.78125 2.703125 C 2.78125 3.242188 3.054688 3.664062 3.609375 3.96875 C 4.160156 4.269531 5.023438 4.421875 6.203125 4.421875 C 7.296875 4.421875 8.160156 4.273438 8.796875 3.984375 C 9.429688 3.691406 9.75 3.273438 9.75 2.734375 C 9.75 2.472656 9.675781 2.253906 9.53125 2.078125 C 9.382812 1.910156 9.070312 1.773438 8.59375 1.671875 C 8.125 1.566406 7.429688 1.515625 6.515625 1.515625 L 4.546875 1.515625 C 4.085938 1.515625 3.675781 1.609375 3.3125 1.796875 C 2.957031 1.984375 2.78125 2.285156 2.78125 2.703125 Z M 2.78125 2.703125 "/></g></g><g style="fill:#000000;fill-opacity:1;"><g transform="translate(84.877451, 22.69716)"><path style="stroke:none" d=""/></g></g><g style="fill:#000000;fill-opacity:1;"><g transform="translate(90.98444, 22.69716)"><path style="stroke:none" d="M 9.859375 -16.34375 C 9.035156 -16.320312 8.4375 -16.273438 8.0625 -16.203125 C 7.6875 -16.128906 7.40625 -15.945312 7.21875 -15.65625 C 7.03125 -15.363281 6.9375 -14.882812 6.9375 -14.21875 L 6.9375 -2.25 C 6.9375 -1.769531 7.050781 -1.425781 7.28125 -1.21875 C 7.519531 -1.007812 7.898438 -0.90625 8.421875 -0.90625 L 10.203125 -0.90625 C 11.578125 -0.90625 12.664062 -1.296875 13.46875 -2.078125 C 14.269531 -2.859375 14.867188 -4.070312 15.265625 -5.71875 L 15.703125 -5.71875 L 15.109375 0 L 0.390625 0 L 0.390625 -0.4375 C 1.109375 -0.457031 1.644531 -0.519531 2 -0.625 C 2.363281 -0.726562 2.625 -0.925781 2.78125 -1.21875 C 2.945312 -1.507812 3.03125 -1.957031 3.03125 -2.5625 L 3.03125 -14.21875 C 3.03125 -14.882812 2.9375 -15.363281 2.75 -15.65625 C 2.5625 -15.945312 2.300781 -16.128906 1.96875 -16.203125 C 1.632812 -16.273438 1.109375 -16.320312 0.390625 -16.34375 L 0.390625 -16.78125 L 9.859375 -16.78125 Z M 9.859375 -16.34375 "/></g></g><g style="fill:#000000;fill-opacity:1;"><g transform="translate(107.277881, 22.69716)"><path style="stroke:none" d="M 6.0625 -11.59375 C 7.050781 -11.59375 7.957031 -11.359375 8.78125 -10.890625 C 9.601562 -10.421875 10.257812 -9.734375 10.75 -8.828125 C 11.25 -7.921875 11.5 -6.84375 11.5 -5.59375 C 11.5 -4.257812 11.222656 -3.144531 10.671875 -2.25 C 10.117188 -1.363281 9.429688 -0.707031 8.609375 -0.28125 C 7.785156 0.132812 6.96875 0.34375 6.15625 0.34375 C 5.257812 0.34375 4.390625 0.113281 3.546875 -0.34375 C 2.710938 -0.8125 2.03125 -1.5 1.5 -2.40625 C 0.96875 -3.3125 0.703125 -4.398438 0.703125 -5.671875 C 0.703125 -6.804688 0.929688 -7.820312 1.390625 -8.71875 C 1.847656 -9.613281 2.484375 -10.316406 3.296875 -10.828125 C 4.109375 -11.335938 5.03125 -11.59375 6.0625 -11.59375 Z M 4.21875 -6.15625 C 4.21875 -4.6875 4.265625 -3.554688 4.359375 -2.765625 C 4.460938 -1.984375 4.648438 -1.410156 4.921875 -1.046875 C 5.191406 -0.691406 5.585938 -0.515625 6.109375 -0.515625 C 6.578125 -0.515625 6.945312 -0.660156 7.21875 -0.953125 C 7.5 -1.242188 7.695312 -1.71875 7.8125 -2.375 C 7.925781 -3.039062 7.984375 -3.941406 7.984375 -5.078125 C 7.984375 -6.546875 7.941406 -7.664062 7.859375 -8.4375 C 7.773438 -9.207031 7.59375 -9.785156 7.3125 -10.171875 C 7.039062 -10.554688 6.625 -10.75 6.0625 -10.75 C 5.34375 -10.75 4.851562 -10.359375 4.59375 -9.578125 C 4.34375 -8.804688 4.21875 -7.664062 4.21875 -6.15625 Z M 4.21875 -6.15625 "/></g></g><g style="fill:#000000;fill-opacity:1;"><g transform="translate(119.491858, 22.69716)"><path style="stroke:none" d="M 6.0625 -11.59375 C 7.050781 -11.59375 7.957031 -11.359375 8.78125 -10.890625 C 9.601562 -10.421875 10.257812 -9.734375 10.75 -8.828125 C 11.25 -7.921875 11.5 -6.84375 11.5 -5.59375 C 11.5 -4.257812 11.222656 -3.144531 10.671875 -2.25 C 10.117188 -1.363281 9.429688 -0.707031 8.609375 -0.28125 C 7.785156 0.132812 6.96875 0.34375 6.15625 0.34375 C 5.257812 0.34375 4.390625 0.113281 3.546875 -0.34375 C 2.710938 -0.8125 2.03125 -1.5 1.5 -2.40625 C 0.96875 -3.3125 0.703125 -4.398438 0.703125 -5.671875 C 0.703125 -6.804688 0.929688 -7.820312 1.390625 -8.71875 C 1.847656 -9.613281 2.484375 -10.316406 3.296875 -10.828125 C 4.109375 -11.335938 5.03125 -11.59375 6.0625 -11.59375 Z M 4.21875 -6.15625 C 4.21875 -4.6875 4.265625 -3.554688 4.359375 -2.765625 C 4.460938 -1.984375 4.648438 -1.410156 4.921875 -1.046875 C 5.191406 -0.691406 5.585938 -0.515625 6.109375 -0.515625 C 6.578125 -0.515625 6.945312 -0.660156 7.21875 -0.953125 C 7.5 -1.242188 7.695312 -1.71875 7.8125 -2.375 C 7.925781 -3.039062 7.984375 -3.941406 7.984375 -5.078125 C 7.984375 -6.546875 7.941406 -7.664062 7.859375 -8.4375 C 7.773438 -9.207031 7.59375 -9.785156 7.3125 -10.171875 C 7.039062 -10.554688 6.625 -10.75 6.0625 -10.75 C 5.34375 -10.75 4.851562 -10.359375 4.59375 -9.578125 C 4.34375 -8.804688 4.21875 -7.664062 4.21875 -6.15625 Z M 4.21875 -6.15625 "/></g></g><g style="fill:#000000;fill-opacity:1;"><g transform="translate(131.705835, 22.69716)"><path style="stroke:none" d="M 8.078125 -11.59375 C 8.828125 -11.59375 9.453125 -11.410156 9.953125 -11.046875 C 10.453125 -10.679688 10.773438 -10.175781 10.921875 -9.53125 C 11.367188 -10.195312 11.898438 -10.707031 12.515625 -11.0625 C 13.140625 -11.414062 13.785156 -11.59375 14.453125 -11.59375 C 15.421875 -11.59375 16.15625 -11.289062 16.65625 -10.6875 C 17.15625 -10.09375 17.40625 -9.363281 17.40625 -8.5 L 17.40625 -1.734375 C 17.40625 -1.359375 17.488281 -1.050781 17.65625 -0.8125 C 17.832031 -0.582031 18.109375 -0.457031 18.484375 -0.4375 L 18.484375 0 L 13.015625 0 L 13.015625 -0.4375 C 13.441406 -0.457031 13.722656 -0.566406 13.859375 -0.765625 C 13.992188 -0.972656 14.0625 -1.335938 14.0625 -1.859375 L 14.0625 -8.765625 C 14.0625 -9.023438 13.988281 -9.296875 13.84375 -9.578125 C 13.695312 -9.867188 13.445312 -10.015625 13.09375 -10.015625 C 12.75 -10.015625 12.429688 -9.90625 12.140625 -9.6875 C 11.847656 -9.46875 11.503906 -9.078125 11.109375 -8.515625 L 11.109375 -1.90625 C 11.109375 -1.03125 11.457031 -0.539062 12.15625 -0.4375 L 12.15625 0 L 6.734375 0 L 6.734375 -0.4375 C 7.421875 -0.519531 7.765625 -1.035156 7.765625 -1.984375 L 7.765625 -8.640625 C 7.765625 -9.015625 7.679688 -9.332031 7.515625 -9.59375 C 7.359375 -9.851562 7.09375 -9.984375 6.71875 -9.984375 C 6.082031 -9.984375 5.445312 -9.492188 4.8125 -8.515625 L 4.8125 -1.921875 C 4.8125 -1.035156 5.171875 -0.539062 5.890625 -0.4375 L 5.890625 0 L 0.34375 0 L 0.34375 -0.4375 C 0.726562 -0.488281 1.007812 -0.625 1.1875 -0.84375 C 1.375 -1.0625 1.46875 -1.445312 1.46875 -2 L 1.46875 -9.25 C 1.46875 -9.84375 1.367188 -10.253906 1.171875 -10.484375 C 0.972656 -10.722656 0.695312 -10.859375 0.34375 -10.890625 L 0.34375 -11.328125 L 4.8125 -11.328125 L 4.8125 -9.75 L 4.859375 -9.75 C 5.359375 -10.394531 5.867188 -10.863281 6.390625 -11.15625 C 6.921875 -11.445312 7.484375 -11.59375 8.078125 -11.59375 Z M 8.078125 -11.59375 "/></g></g></g></svg>